<?xml version="1.0" encoding="utf-8"?>
<!-- Generator: Adobe Illustrator 22.1.0, SVG Export Plug-In . SVG Version: 6.00 Build 0)  -->
<svg version="1.1" id="choose_plan" xmlns="http://www.w3.org/2000/svg" xmlns:xlink="http://www.w3.org/1999/xlink" x="0px"
	 y="0px" viewBox="0 0 227 227" style="enable-background:new 0 0 227 227;" xml:space="preserve">
<style type="text/css">
	.st0{opacity:0.24;}
	.st1{fill:#A857CC;}
</style>
<g class="st0">
	<g>
		<path class="st1" d="M113.5,0C51.1,0,0,51.1,0,113.5S51.1,227,113.5,227S227,175.9,227,113.5S175.9,0,113.5,0z M113.5,209.5
			c-52.8,0-96-43.2-96-96s43.2-96,96-96s96,43.2,96,96S166.3,209.5,113.5,209.5z"/>
		<path class="st1" d="M161.1,53.3c-4.4-2.2-9.6-0.4-11.8,3.9L102.6,151l-26.2-26.2c-3.5-3.5-8.7-3.5-12.2,0
			c-3.5,3.5-3.5,8.7,0,12.2L99.1,172c1.3,1.7,3.5,2.6,5.7,2.6c0.4,0,0.9,0,1.3,0c2.6-0.4,5.2-2.2,6.5-4.8L165,65
			C167.2,60.7,165.4,55.4,161.1,53.3z"/>
	</g>
</g>
</svg>
