<?xml version="1.0" encoding="utf-8"?>
<!-- Generator: Adobe Illustrator 22.1.0, SVG Export Plug-In . SVG Version: 6.00 Build 0)  -->
<svg version="1.1" id="contact_us" xmlns="http://www.w3.org/2000/svg" xmlns:xlink="http://www.w3.org/1999/xlink" x="0px" y="0px"
	 viewBox="0 0 260.8 215.3" style="enable-background:new 0 0 260.8 215.3;" xml:space="preserve">
<style type="text/css">
	.st0{opacity:0.24;}
	.st1{fill:#8C4ACA;}
</style>
<title>Artboard 15</title>
<g class="st0">
	
		<rect x="69.3" y="46.9" transform="matrix(0.8947 -0.4467 0.4467 0.8947 -6.3596 81.0493)" class="st1" width="198.8" height="14.3"/>
	<path class="st1" d="M260.4,8c-2.9-5.7-7.6-8.6-14.3-8.6h-231l0,0C6.7-0.6,0,7,0,15.6c0,3.8,1.9,7.6,3.8,10.5L71,99.8
		c1.9,1.9,2.9,3.8,2.9,6.7l2.9,15.1c1,3.8,4.8,6.7,8.6,5.7l0,0l0,0c3.8-1,6.7-4.8,5.7-8.6l-2.9-15.1c-1-4.8-2.9-9.5-6.7-13.2
		L14.3,15.6c0-1,0-1,0-1.9h1h232c1,0,1,0,1,1v1L107.9,201c0,1-1,1-1.9,0l-1-1l-6.7-33.2c-1-3.8-4.8-6.7-8.6-5.7l0,0l0,0
		c-3.8,1-6.7,4.8-5.7,8.6l6.7,33.2c1,5.7,5.7,10.5,11.4,12.4c1,0,2.9,0,3.8,0c4.8,0,9.5-1.9,12.4-5.7L258.4,24
		C262.3,19.4,263.2,12.7,260.4,8z"/>
</g>
</svg>
