<?xml version="1.0" encoding="utf-8"?>
<!-- Generator: Adobe Illustrator 22.1.0, SVG Export Plug-In . SVG Version: 6.00 Build 0)  -->
<svg version="1.1" id="have_rest" xmlns="http://www.w3.org/2000/svg" xmlns:xlink="http://www.w3.org/1999/xlink" x="0px" y="0px"
	 viewBox="0 0 231 224.8" style="enable-background:new 0 0 231 224.8;" xml:space="preserve">
<style type="text/css">
	.st0{opacity:0.24;fill:#C06ECE;}
</style>
<path class="st0" d="M222.3,109c-4-4.3-9.1-6.5-14.5-6.5h-14.1c0-4,0.4-7.6,0.4-11.6c0-4.7-4-8.7-8.7-8.7H8.7c-4.7,0-8.7,4-8.7,8.7
	c0,60.1,19.2,99.9,54.3,116.6H26.1c-4.7,0-8.7,4-8.7,8.7c0,4.7,4,8.7,8.7,8.7h141.6c4.7,0,8.7-4,8.7-8.7c0-4.7-4-8.7-8.7-8.7h-27.9
	c16.3-7.6,29-20.3,38-37.3c0.7,0,1.4,0.4,2.2,0.4h20.3c15.9,0,29.7-15.2,30.8-33.7C231.3,126,228.1,115.5,222.3,109z M96.7,198.8
	c-50.3,0-77.1-33.3-79.3-99.2h158.6C173.8,165.4,147.3,198.8,96.7,198.8z M199.8,153.1h-15.2c3.3-9.8,5.8-21,7.2-32.9h15.6
	c0.7,0,1.4,0.7,1.8,1.1c2.2,2.2,4.3,7.2,3.6,14.8C212.5,145.2,206.4,153.1,199.8,153.1z"/>
<path class="st0" d="M96.7,55C92,55,88,51,88,46.3V8.7C88,4,92,0,96.7,0c4.7,0,8.7,4,8.7,8.7v37.7C105.7,51,101.7,55,96.7,55z"/>
<path class="st0" d="M132.1,72.8c-4.7,0-8.7-4-8.7-8.7V26.4c0-4.7,4-8.7,8.7-8.7c4.7,0,8.7,4,8.7,8.7v37.7
	C140.8,68.8,136.8,72.8,132.1,72.8z"/>
<path class="st0" d="M61.5,72.8c-4.7,0-8.7-4-8.7-8.7V26.4c0-4.7,4-8.7,8.7-8.7c4.7,0,8.7,4,8.7,8.7v37.7
	C70.2,68.8,66.3,72.8,61.5,72.8z"/>
</svg>
