<?xml version="1.0" encoding="utf-8"?>
<!-- Generator: Adobe Illustrator 22.1.0, SVG Export Plug-In . SVG Version: 6.00 Build 0)  -->
<svg version="1.1" id="location" xmlns="http://www.w3.org/2000/svg" xmlns:xlink="http://www.w3.org/1999/xlink" x="0px" y="0px"
	 viewBox="0 0 390 512" style="enable-background:new 0 0 390 512;" xml:space="preserve">
<g>
	<g>
		<path d="M195,0C87.5,0,0,87.5,0,195c0,42.6,13.4,83,38.9,116.9L183,506c0.4,0.5,0.9,0.6,1.3,1.1c7.2,7.7,17.6,5.8,22.7-1.1
			c41.5-55.4,117.5-158.8,146.8-197.8c0,0,0,0,0,0l0.2-0.2c23.6-33.1,36-72.1,36-112.9C390,87.5,302.5,0,195,0z M195,300.2
			c-57.9,0-105.2-47.3-105.2-105.2S137.1,89.8,195,89.8S300.2,137.1,300.2,195S252.9,300.2,195,300.2z"/>
	</g>
</g>
</svg>
